STARTFONT 2.1
FONT -FontForge-Nasalization-Book-R-Normal--13-120-75-75-P-85-ISO10646-1
SIZE 12 75 75
FONTBOUNDINGBOX 14 13 -1 -3
COMMENT "Generated by fontforge, http://fontforge.sourceforge.net"
COMMENT "(c) 1999-2024 Typodermic Fonts Inc."
STARTPROPERTIES 39
FOUNDRY "FontForge"
FAMILY_NAME "Nasalization"
WEIGHT_NAME "Book"
SLANT "R"
SETWIDTH_NAME "Normal"
ADD_STYLE_NAME ""
PIXEL_SIZE 13
POINT_SIZE 120
RESOLUTION_X 75
RESOLUTION_Y 75
SPACING "P"
AVERAGE_WIDTH 85
CHARSET_REGISTRY "ISO10646"
CHARSET_ENCODING "1"
FONTNAME_REGISTRY ""
CHARSET_COLLECTIONS "ISO10646-1"
FONT_NAME "Nasalization-Regular"
FACE_NAME "Nasalization Regular"
COPYRIGHT "(c) 1999-2024 Typodermic Fonts Inc."
FONT_VERSION "5.100"
FONT_ASCENT 10
FONT_DESCENT 3
UNDERLINE_POSITION -1
UNDERLINE_THICKNESS 1
X_HEIGHT 6
CAP_HEIGHT 8
RAW_ASCENT 800
RAW_DESCENT 200
NORM_SPACE 3
RELATIVE_WEIGHT 40
RELATIVE_SETWIDTH 50
SUPERSCRIPT_X 0
SUPERSCRIPT_Y 3
SUPERSCRIPT_SIZE 3
SUBSCRIPT_X 0
SUBSCRIPT_Y 0
SUBSCRIPT_SIZE 3
AVG_LOWERCASE_WIDTH 80
AVG_UPPERCASE_WIDTH 95
ENDPROPERTIES
CHARS 66
STARTCHAR space
ENCODING 32
SWIDTH 267 0
DWIDTH 3 0
BBX 1 1 0 0
BITMAP
00
ENDCHAR
STARTCHAR dollar
ENCODING 36
SWIDTH 620 0
DWIDTH 8 0
BBX 6 11 1 -1
BITMAP
10
10
7C
FC
80
F8
04
04
FC
10
10
ENDCHAR
STARTCHAR zero
ENCODING 48
SWIDTH 748 0
DWIDTH 10 0
BBX 8 9 1 0
BITMAP
3C
7E
C2
83
83
83
C2
E6
7C
ENDCHAR
STARTCHAR one
ENCODING 49
SWIDTH 337 0
DWIDTH 4 0
BBX 3 9 0 0
BITMAP
E0
E0
20
20
20
20
20
20
20
ENDCHAR
STARTCHAR two
ENCODING 50
SWIDTH 734 0
DWIDTH 10 0
BBX 8 9 1 0
BITMAP
FE
FF
03
03
3E
F0
80
FF
FF
ENDCHAR
STARTCHAR three
ENCODING 51
SWIDTH 681 0
DWIDTH 9 0
BBX 7 9 1 0
BITMAP
FC
FE
06
06
7C
06
02
FE
FC
ENDCHAR
STARTCHAR four
ENCODING 52
SWIDTH 704 0
DWIDTH 9 0
BBX 8 9 0 0
BITMAP
0F
1F
31
31
61
C1
7F
01
01
ENDCHAR
STARTCHAR five
ENCODING 53
SWIDTH 685 0
DWIDTH 9 0
BBX 7 9 1 0
BITMAP
FE
FE
C0
C0
FE
02
02
FE
FC
ENDCHAR
STARTCHAR six
ENCODING 54
SWIDTH 713 0
DWIDTH 9 0
BBX 8 9 1 0
BITMAP
3E
7E
C0
80
FE
83
C3
FE
7E
ENDCHAR
STARTCHAR seven
ENCODING 55
SWIDTH 651 0
DWIDTH 8 0
BBX 8 9 0 0
BITMAP
FE
FF
03
03
06
0C
18
18
30
ENDCHAR
STARTCHAR eight
ENCODING 56
SWIDTH 726 0
DWIDTH 9 0
BBX 8 9 1 0
BITMAP
7C
FE
83
83
7E
C2
83
FF
7E
ENDCHAR
STARTCHAR nine
ENCODING 57
SWIDTH 713 0
DWIDTH 9 0
BBX 8 9 1 0
BITMAP
7C
FE
86
82
FF
02
02
7E
7C
ENDCHAR
STARTCHAR equal
ENCODING 61
SWIDTH 619 0
DWIDTH 8 0
BBX 7 5 1 2
BITMAP
FE
00
00
00
FE
ENDCHAR
STARTCHAR A
ENCODING 65
SWIDTH 784 0
DWIDTH 10 0
BBX 10 9 0 0
BITMAP
0E00
1E00
1200
3300
3100
2180
6180
6080
C0C0
ENDCHAR
STARTCHAR B
ENCODING 66
SWIDTH 719 0
DWIDTH 9 0
BBX 8 9 1 0
BITMAP
FC
FE
C3
C2
FE
C2
C3
FE
FE
ENDCHAR
STARTCHAR C
ENCODING 67
SWIDTH 682 0
DWIDTH 9 0
BBX 7 9 1 0
BITMAP
3E
7E
C0
80
80
80
C0
FE
3E
ENDCHAR
STARTCHAR D
ENCODING 68
SWIDTH 737 0
DWIDTH 10 0
BBX 8 9 1 0
BITMAP
FC
FE
C3
C3
C3
C3
C3
FE
FC
ENDCHAR
STARTCHAR E
ENCODING 69
SWIDTH 693 0
DWIDTH 9 0
BBX 7 9 1 0
BITMAP
7E
FE
80
C0
7E
C0
80
FE
7E
ENDCHAR
STARTCHAR F
ENCODING 70
SWIDTH 663 0
DWIDTH 9 0
BBX 7 9 1 0
BITMAP
3E
FE
C0
C0
FE
FE
C0
C0
C0
ENDCHAR
STARTCHAR G
ENCODING 71
SWIDTH 729 0
DWIDTH 9 0
BBX 8 9 1 0
BITMAP
3E
7E
C0
80
9E
83
C3
FF
3E
ENDCHAR
STARTCHAR H
ENCODING 72
SWIDTH 745 0
DWIDTH 10 0
BBX 8 9 1 0
BITMAP
C3
C3
C3
C3
FF
C3
C3
C3
C3
ENDCHAR
STARTCHAR I
ENCODING 73
SWIDTH 281 0
DWIDTH 4 0
BBX 2 9 1 0
BITMAP
C0
C0
C0
C0
C0
C0
C0
C0
C0
ENDCHAR
STARTCHAR J
ENCODING 74
SWIDTH 583 0
DWIDTH 8 0
BBX 7 9 0 0
BITMAP
06
06
06
06
06
06
06
FC
F8
ENDCHAR
STARTCHAR K
ENCODING 75
SWIDTH 708 0
DWIDTH 9 0
BBX 8 9 1 0
BITMAP
C3
C6
C6
CC
F8
CC
C6
C6
C3
ENDCHAR
STARTCHAR L
ENCODING 76
SWIDTH 622 0
DWIDTH 8 0
BBX 7 9 1 0
BITMAP
C0
C0
C0
C0
C0
C0
C0
FE
7E
ENDCHAR
STARTCHAR M
ENCODING 77
SWIDTH 1102 0
DWIDTH 14 0
BBX 12 9 1 0
BITMAP
7070
F0F0
D890
D890
D990
C990
C910
CD10
C710
ENDCHAR
STARTCHAR N
ENCODING 78
SWIDTH 879 0
DWIDTH 11 0
BBX 9 9 1 0
BITMAP
6080
F080
D880
D880
C880
CC80
C480
C680
C380
ENDCHAR
STARTCHAR O
ENCODING 79
SWIDTH 816 0
DWIDTH 11 0
BBX 9 9 1 0
BITMAP
3E00
7F00
C180
8180
8180
8180
C180
FF00
3E00
ENDCHAR
STARTCHAR P
ENCODING 80
SWIDTH 679 0
DWIDTH 9 0
BBX 7 9 1 0
BITMAP
FC
FE
02
02
FE
F8
C0
C0
C0
ENDCHAR
STARTCHAR Q
ENCODING 81
SWIDTH 816 0
DWIDTH 11 0
BBX 9 10 1 -1
BITMAP
3E00
7F00
C180
8180
8180
8180
CD80
FF00
3E00
0200
ENDCHAR
STARTCHAR R
ENCODING 82
SWIDTH 714 0
DWIDTH 9 0
BBX 8 9 1 0
BITMAP
FC
FE
03
03
FE
FC
C4
C6
C3
ENDCHAR
STARTCHAR S
ENCODING 83
SWIDTH 703 0
DWIDTH 9 0
BBX 7 9 1 0
BITMAP
7E
FE
80
80
FE
02
02
FE
FE
ENDCHAR
STARTCHAR T
ENCODING 84
SWIDTH 571 0
DWIDTH 7 0
BBX 7 9 0 0
BITMAP
FE
FE
10
10
10
10
10
10
10
ENDCHAR
STARTCHAR U
ENCODING 85
SWIDTH 732 0
DWIDTH 10 0
BBX 8 9 1 0
BITMAP
C3
C3
C3
C3
C3
C3
C3
FE
7E
ENDCHAR
STARTCHAR V
ENCODING 86
SWIDTH 784 0
DWIDTH 10 0
BBX 10 9 0 0
BITMAP
C0C0
4080
6180
6180
3100
3300
1200
1E00
1E00
ENDCHAR
STARTCHAR W
ENCODING 87
SWIDTH 1046 0
DWIDTH 14 0
BBX 13 9 0 0
BITMAP
C708
4798
4598
4C98
4C98
6C98
68D0
68D0
3870
ENDCHAR
STARTCHAR X
ENCODING 88
SWIDTH 781 0
DWIDTH 10 0
BBX 9 9 1 0
BITMAP
C180
6300
2600
3C00
1800
3C00
6600
4300
C100
ENDCHAR
STARTCHAR Y
ENCODING 89
SWIDTH 689 0
DWIDTH 9 0
BBX 9 9 0 0
BITMAP
C180
6300
3600
3400
1C00
0800
0800
0800
0800
ENDCHAR
STARTCHAR Z
ENCODING 90
SWIDTH 743 0
DWIDTH 10 0
BBX 8 9 1 0
BITMAP
FE
FF
03
07
3C
F0
80
FF
FF
ENDCHAR
STARTCHAR a
ENCODING 97
SWIDTH 672 0
DWIDTH 9 0
BBX 7 7 1 0
BITMAP
FC
06
06
FE
86
C6
FE
ENDCHAR
STARTCHAR b
ENCODING 98
SWIDTH 695 0
DWIDTH 9 0
BBX 7 10 1 0
BITMAP
80
80
80
FC
86
82
82
82
C6
7C
ENDCHAR
STARTCHAR c
ENCODING 99
SWIDTH 602 0
DWIDTH 8 0
BBX 6 7 1 0
BITMAP
7C
C0
80
80
80
C0
7C
ENDCHAR
STARTCHAR d
ENCODING 100
SWIDTH 695 0
DWIDTH 9 0
BBX 7 10 1 0
BITMAP
02
02
02
7E
C2
82
82
82
C6
7C
ENDCHAR
STARTCHAR e
ENCODING 101
SWIDTH 652 0
DWIDTH 8 0
BBX 7 7 1 0
BITMAP
7C
C6
86
FC
80
C0
7C
ENDCHAR
STARTCHAR f
ENCODING 102
SWIDTH 375 0
DWIDTH 5 0
BBX 5 10 0 0
BITMAP
38
60
60
F8
60
60
60
60
60
60
ENDCHAR
STARTCHAR g
ENCODING 103
SWIDTH 692 0
DWIDTH 9 0
BBX 7 10 1 -3
BITMAP
7C
C6
82
82
82
FE
7E
02
FE
FC
ENDCHAR
STARTCHAR h
ENCODING 104
SWIDTH 707 0
DWIDTH 9 0
BBX 7 10 1 0
BITMAP
80
80
80
FC
8E
82
82
82
82
82
ENDCHAR
STARTCHAR i
ENCODING 105
SWIDTH 258 0
DWIDTH 3 0
BBX 1 9 1 0
BITMAP
80
00
80
80
80
80
80
80
80
ENDCHAR
STARTCHAR j
ENCODING 106
SWIDTH 270 0
DWIDTH 4 0
BBX 4 12 -1 -3
BITMAP
30
00
30
30
30
30
30
30
30
30
E0
E0
ENDCHAR
STARTCHAR k
ENCODING 107
SWIDTH 602 0
DWIDTH 8 0
BBX 6 10 1 0
BITMAP
80
80
80
84
8C
88
F0
88
8C
84
ENDCHAR
STARTCHAR l
ENCODING 108
SWIDTH 258 0
DWIDTH 3 0
BBX 1 10 1 0
BITMAP
80
80
80
80
80
80
80
80
80
80
ENDCHAR
STARTCHAR m
ENCODING 109
SWIDTH 1032 0
DWIDTH 13 0
BBX 11 7 1 0
BITMAP
FFC0
8460
8420
8420
8420
8420
8420
ENDCHAR
STARTCHAR n
ENCODING 110
SWIDTH 707 0
DWIDTH 9 0
BBX 7 7 1 0
BITMAP
FC
8E
82
82
82
82
82
ENDCHAR
STARTCHAR o
ENCODING 111
SWIDTH 671 0
DWIDTH 9 0
BBX 7 7 1 0
BITMAP
7C
CE
82
82
82
C6
7C
ENDCHAR
STARTCHAR p
ENCODING 112
SWIDTH 693 0
DWIDTH 9 0
BBX 7 10 1 -3
BITMAP
7C
C6
82
82
82
86
FC
80
80
80
ENDCHAR
STARTCHAR q
ENCODING 113
SWIDTH 693 0
DWIDTH 9 0
BBX 7 10 1 -3
BITMAP
7C
C6
82
82
82
C2
7E
02
02
02
ENDCHAR
STARTCHAR r
ENCODING 114
SWIDTH 463 0
DWIDTH 6 0
BBX 5 7 1 0
BITMAP
78
C0
80
80
80
80
80
ENDCHAR
STARTCHAR s
ENCODING 115
SWIDTH 586 0
DWIDTH 8 0
BBX 6 7 1 0
BITMAP
FC
C0
80
F8
04
0C
F8
ENDCHAR
STARTCHAR t
ENCODING 116
SWIDTH 375 0
DWIDTH 5 0
BBX 5 8 0 0
BITMAP
60
F8
60
60
60
60
60
38
ENDCHAR
STARTCHAR u
ENCODING 117
SWIDTH 702 0
DWIDTH 9 0
BBX 7 7 1 0
BITMAP
82
82
82
82
82
C6
7C
ENDCHAR
STARTCHAR v
ENCODING 118
SWIDTH 677 0
DWIDTH 9 0
BBX 8 7 0 0
BITMAP
C1
43
63
22
36
34
1C
ENDCHAR
STARTCHAR w
ENCODING 119
SWIDTH 977 0
DWIDTH 13 0
BBX 12 7 0 0
BITMAP
C710
4D10
4D30
49B0
48B0
68B0
78E0
ENDCHAR
STARTCHAR x
ENCODING 120
SWIDTH 681 0
DWIDTH 9 0
BBX 7 7 1 0
BITMAP
C2
44
28
10
28
4C
86
ENDCHAR
STARTCHAR y
ENCODING 121
SWIDTH 647 0
DWIDTH 8 0
BBX 8 10 0 -3
BITMAP
C1
43
62
26
24
3C
18
08
18
10
ENDCHAR
STARTCHAR z
ENCODING 122
SWIDTH 624 0
DWIDTH 8 0
BBX 6 7 1 0
BITMAP
FC
04
0C
38
C0
80
FC
ENDCHAR
STARTCHAR degree
ENCODING 176
SWIDTH 389 0
DWIDTH 5 0
BBX 5 4 0 5
BITMAP
70
88
88
70
ENDCHAR
ENDFONT
